<svg width="110" height="30" viewBox="0 0 110 30" fill="none" xmlns="http://www.w3.org/2000/svg">
<rect width="110" height="30" rx="5" fill="#EEEEEE"/>
<path d="M17.054 10.2H18.454V20H17.054V10.2ZM11.426 20H10.026V10.2H11.426V20ZM17.18 15.632H11.286V14.414H17.18V15.632ZM24.5904 20.084C23.797 20.084 23.097 19.9207 22.4904 19.594C21.893 19.2673 21.4264 18.8193 21.0904 18.25C20.7637 17.6807 20.6004 17.0273 20.6004 16.29C20.6004 15.5527 20.759 14.8993 21.0764 14.33C21.403 13.7607 21.8464 13.3173 22.4064 13C22.9757 12.6733 23.615 12.51 24.3244 12.51C25.043 12.51 25.6777 12.6687 26.2284 12.986C26.779 13.3033 27.2084 13.7513 27.5164 14.33C27.8337 14.8993 27.9924 15.5667 27.9924 16.332C27.9924 16.388 27.9877 16.4533 27.9784 16.528C27.9784 16.6027 27.9737 16.6727 27.9644 16.738H21.6504V15.772H27.2644L26.7184 16.108C26.7277 15.632 26.6297 15.2073 26.4244 14.834C26.219 14.4607 25.9344 14.1713 25.5704 13.966C25.2157 13.7513 24.8004 13.644 24.3244 13.644C23.8577 13.644 23.4424 13.7513 23.0784 13.966C22.7144 14.1713 22.4297 14.4653 22.2244 14.848C22.019 15.2213 21.9164 15.6507 21.9164 16.136V16.36C21.9164 16.8547 22.0284 17.298 22.2524 17.69C22.4857 18.0727 22.8077 18.3713 23.2184 18.586C23.629 18.8007 24.1004 18.908 24.6324 18.908C25.071 18.908 25.4677 18.8333 25.8224 18.684C26.1864 18.5347 26.5037 18.3107 26.7744 18.012L27.5164 18.88C27.1804 19.272 26.7604 19.5707 26.2564 19.776C25.7617 19.9813 25.2064 20.084 24.5904 20.084ZM34.4223 20V18.432L34.3523 18.138V15.464C34.3523 14.8947 34.1843 14.456 33.8483 14.148C33.5216 13.8307 33.027 13.672 32.3643 13.672C31.9256 13.672 31.4963 13.7467 31.0763 13.896C30.6563 14.036 30.3016 14.2273 30.0123 14.47L29.4523 13.462C29.835 13.154 30.2923 12.9207 30.8243 12.762C31.3656 12.594 31.9303 12.51 32.5183 12.51C33.5356 12.51 34.3196 12.7573 34.8703 13.252C35.421 13.7467 35.6963 14.5027 35.6963 15.52V20H34.4223ZM31.9863 20.084C31.4356 20.084 30.9503 19.9907 30.5303 19.804C30.1196 19.6173 29.8023 19.3607 29.5783 19.034C29.3543 18.698 29.2423 18.32 29.2423 17.9C29.2423 17.4987 29.3356 17.1347 29.5223 16.808C29.7183 16.4813 30.031 16.22 30.4603 16.024C30.899 15.828 31.487 15.73 32.2243 15.73H34.5763V16.696H32.2803C31.6083 16.696 31.1556 16.808 30.9223 17.032C30.689 17.256 30.5723 17.5267 30.5723 17.844C30.5723 18.208 30.717 18.502 31.0063 18.726C31.2956 18.9407 31.697 19.048 32.2103 19.048C32.7143 19.048 33.153 18.936 33.5263 18.712C33.909 18.488 34.1843 18.1613 34.3523 17.732L34.6183 18.656C34.441 19.0947 34.1283 19.4447 33.6803 19.706C33.2323 19.958 32.6676 20.084 31.9863 20.084ZM43.4925 20L40.6225 16.388L41.7285 15.716L45.0745 20H43.4925ZM38.1165 20V12.58H39.4605V20H38.1165ZM39.0545 16.864V15.716H41.5045V16.864H39.0545ZM41.8405 16.444L40.5945 16.276L43.4365 12.58H44.8785L41.8405 16.444ZM47.8306 20V13.406L48.1666 13.756H45.1146V12.58H51.8906V13.756H48.8526L49.1746 13.406V20H47.8306ZM53.2649 20V12.58H54.6089V17.984L59.1589 12.58H60.3769V20H59.0329V14.596L54.4969 20H53.2649ZM62.9856 20V12.58H66.4296C67.2976 12.58 67.9789 12.748 68.4736 13.084C68.9776 13.4107 69.2296 13.8773 69.2296 14.484C69.2296 15.0907 68.9916 15.562 68.5156 15.898C68.0489 16.2247 67.4283 16.388 66.6536 16.388L66.8636 16.024C67.7503 16.024 68.4083 16.1873 68.8376 16.514C69.2669 16.8407 69.4816 17.3213 69.4816 17.956C69.4816 18.6 69.2389 19.104 68.7536 19.468C68.2776 19.8227 67.5449 20 66.5556 20H62.9856ZM64.3016 18.964H66.4576C67.0176 18.964 67.4376 18.88 67.7176 18.712C67.9976 18.5347 68.1376 18.2547 68.1376 17.872C68.1376 17.48 68.0069 17.1953 67.7456 17.018C67.4936 16.8313 67.0923 16.738 66.5416 16.738H64.3016V18.964ZM64.3016 15.772H66.3176C66.8309 15.772 67.2183 15.6787 67.4796 15.492C67.7503 15.296 67.8856 15.0253 67.8856 14.68C67.8856 14.3253 67.7503 14.0593 67.4796 13.882C67.2183 13.7047 66.8309 13.616 66.3176 13.616H64.3016V15.772ZM71.5852 20V12.58H72.9292V15.73H77.1572V12.58H78.5012V20H77.1572V16.892H72.9292V20H71.5852ZM88.4505 20V12.58H89.7945V20H88.4505ZM84.4605 15.1C85.4032 15.1093 86.1172 15.324 86.6025 15.744C87.0972 16.164 87.3445 16.7567 87.3445 17.522C87.3445 18.3247 87.0738 18.9453 86.5325 19.384C86.0005 19.8133 85.2352 20.0233 84.2365 20.014L81.1145 20V12.58H82.4585V15.086L84.4605 15.1ZM84.1385 18.992C84.7358 19.0013 85.1932 18.88 85.5105 18.628C85.8278 18.376 85.9865 18.0027 85.9865 17.508C85.9865 17.0227 85.8278 16.668 85.5105 16.444C85.2025 16.22 84.7452 16.1033 84.1385 16.094L82.4585 16.066V18.978L84.1385 18.992ZM92.4075 20V12.58H93.7515V17.984L98.3015 12.58H99.5195V20H98.1755V14.596L93.6395 20H92.4075ZM95.8795 11.614C95.1981 11.614 94.6615 11.4507 94.2695 11.124C93.8868 10.788 93.6908 10.3073 93.6815 9.682H94.5915C94.6008 10.0367 94.7175 10.3167 94.9415 10.522C95.1748 10.7273 95.4828 10.83 95.8655 10.83C96.2481 10.83 96.5561 10.7273 96.7895 10.522C97.0228 10.3167 97.1441 10.0367 97.1535 9.682H98.0915C98.0821 10.3073 97.8815 10.788 97.4895 11.124C97.0975 11.4507 96.5608 11.614 95.8795 11.614Z" fill="#222222"/>
</svg>
