<svg width="100" height="30" viewBox="0 0 100 30" fill="none" xmlns="http://www.w3.org/2000/svg">
<rect width="100" height="30" rx="5" fill="#50CB22"/>
<path d="M12.668 20L17.106 10.2H18.492L22.944 20H21.474L17.512 10.984H18.072L14.11 20H12.668ZM14.558 17.55L14.936 16.43H20.452L20.858 17.55H14.558ZM29.7874 20L26.9174 16.388L28.0234 15.716L31.3694 20H29.7874ZM24.4114 20V12.58H25.7554V20H24.4114ZM25.3494 16.864V15.716H27.7994V16.864H25.3494ZM28.1354 16.444L26.8894 16.276L29.7314 12.58H31.1734L28.1354 16.444ZM34.1255 20V13.406L34.4615 13.756H31.4095V12.58H38.1855V13.756H35.1475L35.4695 13.406V20H34.1255ZM39.5598 20V12.58H40.9038V17.984L45.4538 12.58H46.6718V20H45.3278V14.596L40.7918 20H39.5598ZM49.2805 20V12.58H52.7245C53.5925 12.58 54.2738 12.748 54.7685 13.084C55.2725 13.4107 55.5245 13.8773 55.5245 14.484C55.5245 15.0907 55.2865 15.562 54.8105 15.898C54.3438 16.2247 53.7232 16.388 52.9485 16.388L53.1585 16.024C54.0452 16.024 54.7032 16.1873 55.1325 16.514C55.5618 16.8407 55.7765 17.3213 55.7765 17.956C55.7765 18.6 55.5338 19.104 55.0485 19.468C54.5725 19.8227 53.8398 20 52.8505 20H49.2805ZM50.5965 18.964H52.7525C53.3125 18.964 53.7325 18.88 54.0125 18.712C54.2925 18.5347 54.4325 18.2547 54.4325 17.872C54.4325 17.48 54.3018 17.1953 54.0405 17.018C53.7885 16.8313 53.3872 16.738 52.8365 16.738H50.5965V18.964ZM50.5965 15.772H52.6125C53.1258 15.772 53.5132 15.6787 53.7745 15.492C54.0452 15.296 54.1805 15.0253 54.1805 14.68C54.1805 14.3253 54.0452 14.0593 53.7745 13.882C53.5132 13.7047 53.1258 13.616 52.6125 13.616H50.5965V15.772ZM57.8801 20V12.58H59.2241V15.73H63.4521V12.58H64.7961V20H63.4521V16.892H59.2241V20H57.8801ZM74.7454 20V12.58H76.0894V20H74.7454ZM70.7554 15.1C71.6981 15.1093 72.4121 15.324 72.8974 15.744C73.3921 16.164 73.6394 16.7567 73.6394 17.522C73.6394 18.3247 73.3688 18.9453 72.8274 19.384C72.2954 19.8133 71.5301 20.0233 70.5314 20.014L67.4094 20V12.58H68.7534V15.086L70.7554 15.1ZM70.4334 18.992C71.0308 19.0013 71.4881 18.88 71.8054 18.628C72.1228 18.376 72.2814 18.0027 72.2814 17.508C72.2814 17.0227 72.1228 16.668 71.8054 16.444C71.4974 16.22 71.0401 16.1033 70.4334 16.094L68.7534 16.066V18.978L70.4334 18.992ZM78.7024 20V12.58H80.0464V17.984L84.5964 12.58H85.8144V20H84.4704V14.596L79.9344 20H78.7024ZM82.1744 11.614C81.4931 11.614 80.9564 11.4507 80.5644 11.124C80.1817 10.788 79.9857 10.3073 79.9764 9.682H80.8864C80.8957 10.0367 81.0124 10.3167 81.2364 10.522C81.4697 10.7273 81.7777 10.83 82.1604 10.83C82.5431 10.83 82.8511 10.7273 83.0844 10.522C83.3177 10.3167 83.4391 10.0367 83.4484 9.682H84.3864C84.3771 10.3073 84.1764 10.788 83.7844 11.124C83.3924 11.4507 82.8557 11.614 82.1744 11.614Z" fill="white"/>
</svg>
