<svg width="85" height="24" viewBox="0 0 85 24" fill="none" xmlns="http://www.w3.org/2000/svg">
<rect width="85" height="24" rx="5" fill="#9CD4DC"/>
<path d="M10.188 16V7.6H13.944C14.888 7.6 15.624 7.788 16.152 8.164C16.68 8.532 16.944 9.064 16.944 9.76C16.944 10.448 16.692 10.98 16.188 11.356C15.684 11.724 15.02 11.908 14.196 11.908L14.412 11.476C15.348 11.476 16.072 11.664 16.584 12.04C17.096 12.416 17.352 12.96 17.352 13.672C17.352 14.4 17.084 14.972 16.548 15.388C16.012 15.796 15.22 16 14.172 16H10.188ZM11.724 14.8H14.124C14.668 14.8 15.08 14.7 15.36 14.5C15.64 14.292 15.78 13.976 15.78 13.552C15.78 13.128 15.64 12.82 15.36 12.628C15.08 12.428 14.668 12.328 14.124 12.328H11.724V14.8ZM11.724 11.188H13.812C14.316 11.188 14.7 11.088 14.964 10.888C15.228 10.68 15.36 10.384 15.36 10C15.36 9.6 15.228 9.3 14.964 9.1C14.7 8.9 14.316 8.8 13.812 8.8H11.724V11.188ZM25.8295 16.084C25.3095 16.084 24.8335 15.964 24.4015 15.724C23.9775 15.484 23.6375 15.124 23.3815 14.644C23.1335 14.156 23.0095 13.54 23.0095 12.796C23.0095 12.044 23.1295 11.428 23.3695 10.948C23.6175 10.468 23.9535 10.112 24.3775 9.88C24.8015 9.64 25.2855 9.52 25.8295 9.52C26.4615 9.52 27.0175 9.656 27.4975 9.928C27.9855 10.2 28.3695 10.58 28.6495 11.068C28.9375 11.556 29.0815 12.132 29.0815 12.796C29.0815 13.46 28.9375 14.04 28.6495 14.536C28.3695 15.024 27.9855 15.404 27.4975 15.676C27.0175 15.948 26.4615 16.084 25.8295 16.084ZM22.2775 18.328V9.592H23.7055V11.104L23.6575 12.808L23.7775 14.512V18.328H22.2775ZM25.6615 14.8C26.0215 14.8 26.3415 14.72 26.6215 14.56C26.9095 14.4 27.1375 14.168 27.3055 13.864C27.4735 13.56 27.5575 13.204 27.5575 12.796C27.5575 12.38 27.4735 12.024 27.3055 11.728C27.1375 11.424 26.9095 11.192 26.6215 11.032C26.3415 10.872 26.0215 10.792 25.6615 10.792C25.3015 10.792 24.9775 10.872 24.6895 11.032C24.4015 11.192 24.1735 11.424 24.0055 11.728C23.8375 12.024 23.7535 12.38 23.7535 12.796C23.7535 13.204 23.8375 13.56 24.0055 13.864C24.1735 14.168 24.4015 14.4 24.6895 14.56C24.9775 14.72 25.3015 14.8 25.6615 14.8ZM33.5624 16.084C32.8504 16.084 32.2264 15.944 31.6904 15.664C31.1624 15.376 30.7504 14.984 30.4544 14.488C30.1664 13.992 30.0224 13.428 30.0224 12.796C30.0224 12.156 30.1624 11.592 30.4424 11.104C30.7304 10.608 31.1224 10.22 31.6184 9.94C32.1224 9.66 32.6944 9.52 33.3344 9.52C33.9584 9.52 34.5144 9.656 35.0024 9.928C35.4904 10.2 35.8744 10.584 36.1544 11.08C36.4344 11.576 36.5744 12.16 36.5744 12.832C36.5744 12.896 36.5704 12.968 36.5624 13.048C36.5624 13.128 36.5584 13.204 36.5504 13.276H31.2104V12.28H35.7584L35.1704 12.592C35.1784 12.224 35.1024 11.9 34.9424 11.62C34.7824 11.34 34.5624 11.12 34.2824 10.96C34.0104 10.8 33.6944 10.72 33.3344 10.72C32.9664 10.72 32.6424 10.8 32.3624 10.96C32.0904 11.12 31.8744 11.344 31.7144 11.632C31.5624 11.912 31.4864 12.244 31.4864 12.628V12.868C31.4864 13.252 31.5744 13.592 31.7504 13.888C31.9264 14.184 32.1744 14.412 32.4944 14.572C32.8144 14.732 33.1824 14.812 33.5984 14.812C33.9584 14.812 34.2824 14.756 34.5704 14.644C34.8584 14.532 35.1144 14.356 35.3384 14.116L36.1424 15.04C35.8544 15.376 35.4904 15.636 35.0504 15.82C34.6184 15.996 34.1224 16.084 33.5624 16.084ZM38.215 16V9.592H39.787L42.367 14.14H41.743L44.455 9.592H45.859L45.871 16H44.515V11.2L44.755 11.356L42.355 15.328H41.707L39.295 11.248L39.583 11.176V16H38.215ZM50.739 16.084C50.083 16.084 49.499 15.944 48.987 15.664C48.475 15.376 48.071 14.984 47.775 14.488C47.479 13.992 47.331 13.428 47.331 12.796C47.331 12.156 47.479 11.592 47.775 11.104C48.071 10.608 48.475 10.22 48.987 9.94C49.499 9.66 50.083 9.52 50.739 9.52C51.403 9.52 51.991 9.66 52.503 9.94C53.023 10.22 53.427 10.604 53.715 11.092C54.011 11.58 54.159 12.148 54.159 12.796C54.159 13.428 54.011 13.992 53.715 14.488C53.427 14.984 53.023 15.376 52.503 15.664C51.991 15.944 51.403 16.084 50.739 16.084ZM50.739 14.8C51.107 14.8 51.435 14.72 51.723 14.56C52.011 14.4 52.235 14.168 52.395 13.864C52.563 13.56 52.647 13.204 52.647 12.796C52.647 12.38 52.563 12.024 52.395 11.728C52.235 11.424 52.011 11.192 51.723 11.032C51.435 10.872 51.111 10.792 50.751 10.792C50.383 10.792 50.055 10.872 49.767 11.032C49.487 11.192 49.263 11.424 49.095 11.728C48.927 12.024 48.843 12.38 48.843 12.796C48.843 13.204 48.927 13.56 49.095 13.864C49.263 14.168 49.487 14.4 49.767 14.56C50.055 14.72 50.379 14.8 50.739 14.8ZM55.6408 16V9.592H57.1408V12.196H60.3688V9.592H61.8688V16H60.3688V13.468H57.1408V16H55.6408ZM65.2111 16V10.504L65.5591 10.864H62.9551V9.592H68.9551V10.864H66.3631L66.7111 10.504V16H65.2111ZM72.7499 16.084C72.0379 16.084 71.4139 15.944 70.8779 15.664C70.3499 15.376 69.9379 14.984 69.6419 14.488C69.3539 13.992 69.2099 13.428 69.2099 12.796C69.2099 12.156 69.3499 11.592 69.6299 11.104C69.9179 10.608 70.3099 10.22 70.8059 9.94C71.3099 9.66 71.8819 9.52 72.5219 9.52C73.1459 9.52 73.7019 9.656 74.1899 9.928C74.6779 10.2 75.0619 10.584 75.3419 11.08C75.6219 11.576 75.7619 12.16 75.7619 12.832C75.7619 12.896 75.7579 12.968 75.7499 13.048C75.7499 13.128 75.7459 13.204 75.7379 13.276H70.3979V12.28H74.9459L74.3579 12.592C74.3659 12.224 74.2899 11.9 74.1299 11.62C73.9699 11.34 73.7499 11.12 73.4699 10.96C73.1979 10.8 72.8819 10.72 72.5219 10.72C72.1539 10.72 71.8299 10.8 71.5499 10.96C71.2779 11.12 71.0619 11.344 70.9019 11.632C70.7499 11.912 70.6739 12.244 70.6739 12.628V12.868C70.6739 13.252 70.7619 13.592 70.9379 13.888C71.1139 14.184 71.3619 14.412 71.6819 14.572C72.0019 14.732 72.3699 14.812 72.7859 14.812C73.1459 14.812 73.4699 14.756 73.7579 14.644C74.0459 14.532 74.3019 14.356 74.5259 14.116L75.3299 15.04C75.0419 15.376 74.6779 15.636 74.2379 15.82C73.8059 15.996 73.3099 16.084 72.7499 16.084Z" fill="white"/>
</svg>
