<svg width="20" height="21" viewBox="0 0 20 21" fill="none" xmlns="http://www.w3.org/2000/svg">
<g clip-path="url(#clip0_528_7847)">
<path d="M16.4015 0.773884C14.4782 0.0818674 12.2436 0.506067 10.7025 2.04713C9.1615 3.58818 8.73728 5.82283 9.42928 7.74608L0 17.1754L3.27673 20.4521L12.706 11.0228C14.6293 11.7148 16.864 11.2906 18.405 9.74953C19.9461 8.20848 20.3703 5.97383 19.6783 4.05058L16.3624 7.36648L14.0006 6.45155L13.0856 4.08975L16.4015 0.773884ZM3.93633 16.5158C4.31238 16.8918 4.31238 17.5015 3.93633 17.8776C3.5603 18.2536 2.95062 18.2536 2.57458 17.8776C2.19853 17.5015 2.19853 16.8918 2.57458 16.5158C2.95062 16.1398 3.5603 16.1398 3.93633 16.5158Z" fill="#222222"/>
</g>
<defs>
<clipPath id="clip0_528_7847">
<rect width="20" height="20" fill="white" transform="translate(0 0.452179)"/>
</clipPath>
</defs>
</svg>
