<svg width="40" height="12" viewBox="0 0 40 12" fill="none" xmlns="http://www.w3.org/2000/svg">
<rect width="40" height="12" rx="3" fill="#23B4BC"/>
<path d="M5.763 8.5V3.6H8.976L8.969 4.209H6.281L6.449 4.034L6.456 8.5H5.763ZM7.98813 8.493L8.03013 7.926C8.06279 7.93067 8.09313 7.93533 8.12113 7.94C8.14913 7.94467 8.17479 7.947 8.19813 7.947C8.34746 7.947 8.46413 7.89567 8.54813 7.793C8.63679 7.69033 8.70213 7.555 8.74413 7.387C8.78613 7.21433 8.81646 7.02067 8.83513 6.806C8.85379 6.59133 8.86779 6.37667 8.87712 6.162L8.94013 4.79H11.7891V8.5H11.1171V5.182L11.2781 5.378H9.37413L9.52813 5.175L9.47913 6.204C9.46513 6.53067 9.43946 6.83633 9.40213 7.121C9.36479 7.40567 9.30646 7.65533 9.22713 7.87C9.15246 8.08467 9.04746 8.25267 8.91213 8.374C8.78146 8.49533 8.61113 8.556 8.40113 8.556C8.34046 8.556 8.27513 8.549 8.20513 8.535C8.13979 8.52567 8.06746 8.51167 7.98813 8.493ZM15.3635 8.5V7.716L15.3285 7.569V6.232C15.3285 5.94733 15.2445 5.728 15.0765 5.574C14.9132 5.41533 14.6658 5.336 14.3345 5.336C14.1152 5.336 13.9005 5.37333 13.6905 5.448C13.4805 5.518 13.3032 5.61367 13.1585 5.735L12.8785 5.231C13.0698 5.077 13.2985 4.96033 13.5645 4.881C13.8352 4.797 14.1175 4.755 14.4115 4.755C14.9202 4.755 15.3122 4.87867 15.5875 5.126C15.8628 5.37333 16.0005 5.75133 16.0005 6.26V8.5H15.3635ZM14.1455 8.542C13.8702 8.542 13.6275 8.49533 13.4175 8.402C13.2122 8.30867 13.0535 8.18033 12.9415 8.017C12.8295 7.849 12.7735 7.66 12.7735 7.45C12.7735 7.24933 12.8202 7.06733 12.9135 6.904C13.0115 6.74067 13.1678 6.61 13.3825 6.512C13.6018 6.414 13.8958 6.365 14.2645 6.365H15.4405V6.848H14.2925C13.9565 6.848 13.7302 6.904 13.6135 7.016C13.4968 7.128 13.4385 7.26333 13.4385 7.422C13.4385 7.604 13.5108 7.751 13.6555 7.863C13.8002 7.97033 14.0008 8.024 14.2575 8.024C14.5095 8.024 14.7288 7.968 14.9155 7.856C15.1068 7.744 15.2445 7.58067 15.3285 7.366L15.4615 7.828C15.3728 8.04733 15.2165 8.22233 14.9925 8.353C14.7685 8.479 14.4862 8.542 14.1455 8.542ZM17.2106 8.5V4.79H18.9326C19.3666 4.79 19.7072 4.874 19.9546 5.042C20.2066 5.20533 20.3326 5.43867 20.3326 5.742C20.3326 6.04533 20.2136 6.281 19.9756 6.449C19.7422 6.61233 19.4319 6.694 19.0446 6.694L19.1496 6.512C19.5929 6.512 19.9219 6.59367 20.1366 6.757C20.3512 6.92033 20.4586 7.16067 20.4586 7.478C20.4586 7.8 20.3372 8.052 20.0946 8.234C19.8566 8.41133 19.4902 8.5 18.9956 8.5H17.2106ZM17.8686 7.982H18.9466C19.2266 7.982 19.4366 7.94 19.5766 7.856C19.7166 7.76733 19.7866 7.62733 19.7866 7.436C19.7866 7.24 19.7212 7.09767 19.5906 7.009C19.4646 6.91567 19.2639 6.869 18.9886 6.869H17.8686V7.982ZM17.8686 6.386H18.8766C19.1332 6.386 19.3269 6.33933 19.4576 6.246C19.5929 6.148 19.6606 6.01267 19.6606 5.84C19.6606 5.66267 19.5929 5.52967 19.4576 5.441C19.3269 5.35233 19.1332 5.308 18.8766 5.308H17.8686V6.386ZM21.5104 8.5V4.79H22.1824V6.365H24.2964V4.79H24.9684V8.5H24.2964V6.946H22.1824V8.5H21.5104ZM28.55 8.5V7.716L28.515 7.569V6.232C28.515 5.94733 28.431 5.728 28.263 5.574C28.0997 5.41533 27.8524 5.336 27.521 5.336C27.3017 5.336 27.087 5.37333 26.877 5.448C26.667 5.518 26.4897 5.61367 26.345 5.735L26.065 5.231C26.2564 5.077 26.485 4.96033 26.751 4.881C27.0217 4.797 27.304 4.755 27.598 4.755C28.1067 4.755 28.4987 4.87867 28.774 5.126C29.0494 5.37333 29.187 5.75133 29.187 6.26V8.5H28.55ZM27.332 8.542C27.0567 8.542 26.814 8.49533 26.604 8.402C26.3987 8.30867 26.24 8.18033 26.128 8.017C26.016 7.849 25.96 7.66 25.96 7.45C25.96 7.24933 26.0067 7.06733 26.1 6.904C26.198 6.74067 26.3544 6.61 26.569 6.512C26.7884 6.414 27.0824 6.365 27.451 6.365H28.627V6.848H27.479C27.143 6.848 26.9167 6.904 26.8 7.016C26.6834 7.128 26.625 7.26333 26.625 7.422C26.625 7.604 26.6974 7.751 26.842 7.863C26.9867 7.97033 27.1874 8.024 27.444 8.024C27.696 8.024 27.9154 7.968 28.102 7.856C28.2934 7.744 28.431 7.58067 28.515 7.366L28.648 7.828C28.5594 8.04733 28.403 8.22233 28.179 8.353C27.955 8.479 27.6727 8.542 27.332 8.542ZM32.7701 8.5V7.198L32.8751 7.324H31.6921C31.1974 7.324 30.8101 7.219 30.5301 7.009C30.2548 6.799 30.1171 6.49333 30.1171 6.092C30.1171 5.66267 30.2641 5.33833 30.5581 5.119C30.8568 4.89967 31.2534 4.79 31.7481 4.79H33.3721V8.5H32.7701ZM30.0821 8.5L31.0901 7.079H31.7831L30.8031 8.5H30.0821ZM32.7701 6.988V5.189L32.8751 5.378H31.7691C31.4611 5.378 31.2231 5.43633 31.0551 5.553C30.8871 5.665 30.8031 5.85167 30.8031 6.113C30.8031 6.59833 31.1158 6.841 31.7411 6.841H32.8751L32.7701 6.988Z" fill="white"/>
</svg>
