<svg width="16" height="16" viewBox="0 0 16 16" fill="none" xmlns="http://www.w3.org/2000/svg">
<g clip-path="url(#clip0_857_10340)">
<path d="M0.5 8C0.499999 12.1421 3.85786 15.5 8 15.5C12.1421 15.5 15.5 12.1421 15.5 8C15.5 3.85786 12.1421 0.5 8 0.5C3.85786 0.499999 0.5 3.85786 0.5 8Z" fill="#23B4BC"/>
<path d="M4.425 11.75L6.85 9.475L5.325 9.475L5.325 7.65C5.325 6.325 6.6 5.225 8.125 5.225C9.675 5.225 10.95 6.425 10.95 7.925L10.95 10.225L13 10.225L13 7.925C13 5.325 10.825 3.25 8.15 3.25C5.525 3.25 3.3 5.25 3.3 7.625L3.3 9.45L2 9.45L4.425 11.75Z" fill="white"/>
</g>
<defs>
<clipPath id="clip0_857_10340">
<rect width="16" height="16" fill="white" transform="translate(16) rotate(90)"/>
</clipPath>
</defs>
</svg>
