<svg width="17" height="17" viewBox="0 0 17 17" fill="none" xmlns="http://www.w3.org/2000/svg">
<path d="M16.7031 8.17185L16.7031 0.707006C16.7031 0.344017 16.4099 0.0507565 16.0469 0.0507565L14.7139 0.0507566L14.7139 8.8281L16.0469 8.8281C16.4099 8.8281 16.7031 8.53484 16.7031 8.17185ZM0.832128 8.05496C0.487596 8.51023 0.296874 9.06804 0.296874 9.64842C0.296874 10.5692 0.81162 11.4428 1.64014 11.9248C1.85343 12.0499 2.09628 12.1157 2.34355 12.1155L7.26338 12.1155L7.14033 14.6359C7.10957 15.245 7.3249 15.8233 7.74531 16.2642C7.95046 16.4818 8.19813 16.6548 8.47294 16.7727C8.74776 16.8905 9.04386 16.9506 9.34287 16.9492C10.4093 16.9492 11.3526 16.2314 11.6356 15.204L13.3952 8.83015L13.4014 0.0528071L3.71963 0.052808C3.52891 0.052808 3.34639 0.0897228 3.17617 0.163551C2.2 0.579858 1.57041 1.53347 1.57041 2.59168C1.57041 2.85007 1.60732 3.10437 1.68115 3.35047C1.33662 3.80574 1.1459 4.36355 1.1459 4.94392C1.1459 5.20232 1.18281 5.45662 1.25664 5.70271C0.912108 6.15798 0.721386 6.7158 0.721386 7.29617C0.721386 7.55457 0.758299 7.80886 0.832128 8.05496ZM2.17539 8.76658L2.62451 8.37693L2.3374 7.85398C2.24349 7.68239 2.19479 7.48972 2.1959 7.29412C2.1959 6.95574 2.3415 6.63377 2.59785 6.41228L3.04697 6.02263L2.76191 5.50173C2.668 5.33014 2.6193 5.13748 2.62041 4.94187C2.62041 4.60349 2.76601 4.28152 3.02236 4.06003L3.47148 3.67039L3.18642 3.14949C3.09251 2.9779 3.04381 2.78523 3.04492 2.58962C3.04492 2.13025 3.31562 1.71599 3.73398 1.52732L11.9248 1.52732L11.9248 8.60662C11.5434 9.98474 10.9732 12.0519 10.2124 14.8102C10.1592 14.9994 10.0462 15.1663 9.8901 15.2857C9.73406 15.4051 9.54347 15.4707 9.34697 15.4726C9.19316 15.4747 9.03936 15.4275 8.91426 15.3352C8.71123 15.1835 8.60254 14.9538 8.61484 14.7097L8.81172 10.641L2.36406 10.641C1.99902 10.4175 1.77344 10.0401 1.77344 9.64841C1.77344 9.31004 1.91904 8.98806 2.17539 8.76658Z" fill="white"/>
</svg>
