<svg width="25" height="17" viewBox="0 0 25 17" fill="none" xmlns="http://www.w3.org/2000/svg">
<path d="M12.5 0.6875C7.04844 0.6875 2.32187 3.8625 0 8.5C2.32187 13.1375 7.04844 16.3125 12.5 16.3125C17.9516 16.3125 22.6781 13.1375 25 8.5C22.6781 3.8625 17.9516 0.6875 12.5 0.6875ZM18.6641 4.83125C20.1328 5.76875 21.3781 7.02344 22.3125 8.5C21.381 9.97641 20.1353 11.2291 18.6641 12.1687C16.8235 13.3448 14.6849 13.9696 12.5008 13.9696C10.3166 13.9696 8.17804 13.3448 6.3375 12.1687C4.86697 11.2283 3.62137 9.97573 2.68906 8.5C3.68186 6.92678 5.03065 5.60903 6.62656 4.65313C6.2831 5.59726 6.17231 6.61028 6.30357 7.60633C6.43483 8.60239 6.80428 9.55212 7.3806 10.375C7.95692 11.198 8.72313 11.8698 9.6143 12.3337C10.5055 12.7976 11.4953 13.0398 12.5 13.0398C13.5047 13.0398 14.4945 12.7976 15.3857 12.3337C16.2769 11.8698 17.0431 11.198 17.6194 10.375C18.1957 9.55212 18.5652 8.60239 18.6964 7.60633C18.8277 6.61028 18.7169 5.59726 18.3734 4.65313C18.4703 4.71094 18.5672 4.77031 18.6625 4.83125H18.6641ZM12.5 6.15625C12.4998 6.77806 12.2526 7.37432 11.8127 7.81386C11.3729 8.25339 10.7765 8.50021 10.1547 8.5C9.53288 8.49979 8.93662 8.25258 8.49708 7.81275C8.05754 7.37292 7.81073 6.7765 7.81094 6.15469C7.81114 5.53288 8.05836 4.93662 8.49819 4.49708C8.93802 4.05754 9.53444 3.81073 10.1562 3.81094C10.7781 3.81114 11.3743 4.05836 11.8139 4.49819C12.2534 4.93802 12.5002 5.53444 12.5 6.15625Z" fill="#1BCDC2"/>
</svg>
