<svg width="16" height="16" viewBox="0 0 16 16" fill="none" xmlns="http://www.w3.org/2000/svg">
<path d="M2.16667 15.5C1.93056 15.5 1.7325 15.42 1.5725 15.26C1.41306 15.1006 1.33333 14.9028 1.33333 14.6667V13.8333H0.5V10.5C0.5 10.2639 0.58 10.0658 0.74 9.90583C0.899445 9.74639 1.09722 9.66667 1.33333 9.66667H2.16667V3.83333C2.16667 2.91667 2.49306 2.13194 3.14583 1.47917C3.79861 0.826389 4.58333 0.5 5.5 0.5C6.41667 0.5 7.20139 0.826389 7.85417 1.47917C8.50694 2.13194 8.83333 2.91667 8.83333 3.83333V12.1667C8.83333 12.625 8.99667 13.0175 9.32333 13.3442C9.64944 13.6703 10.0417 13.8333 10.5 13.8333C10.9583 13.8333 11.3508 13.6703 11.6775 13.3442C12.0036 13.0175 12.1667 12.625 12.1667 12.1667V6.33333H11.3333C11.0972 6.33333 10.8994 6.25333 10.74 6.09333C10.58 5.93389 10.5 5.73611 10.5 5.5V2.16667H11.3333V1.33333C11.3333 1.09722 11.4133 0.899167 11.5733 0.739167C11.7328 0.579722 11.9306 0.5 12.1667 0.5H13.8333C14.0694 0.5 14.2672 0.579722 14.4267 0.739167C14.5867 0.899167 14.6667 1.09722 14.6667 1.33333V2.16667H15.5V5.5C15.5 5.73611 15.42 5.93389 15.26 6.09333C15.1006 6.25333 14.9028 6.33333 14.6667 6.33333H13.8333V12.1667C13.8333 13.0833 13.5069 13.8681 12.8542 14.5208C12.2014 15.1736 11.4167 15.5 10.5 15.5C9.58333 15.5 8.79861 15.1736 8.14583 14.5208C7.49306 13.8681 7.16667 13.0833 7.16667 12.1667V3.83333C7.16667 3.375 7.00361 2.98278 6.6775 2.65667C6.35083 2.33 5.95833 2.16667 5.5 2.16667C5.04167 2.16667 4.64944 2.33 4.32333 2.65667C3.99667 2.98278 3.83333 3.375 3.83333 3.83333V9.66667H4.66667C4.90278 9.66667 5.10083 9.74639 5.26083 9.90583C5.42028 10.0658 5.5 10.2639 5.5 10.5V13.8333H4.66667V14.6667C4.66667 14.9028 4.58694 15.1006 4.4275 15.26C4.2675 15.42 4.06944 15.5 3.83333 15.5H2.16667Z" fill="#1BCDC2"/>
</svg>
