<svg width="21" height="19" viewBox="0 0 21 19" fill="none" xmlns="http://www.w3.org/2000/svg">
<path d="M17.7917 6.41675C18.6205 6.41675 19.4153 6.74599 20.0014 7.33204C20.5874 7.91809 20.9167 8.71295 20.9167 9.54175V12.6667C20.9167 13.4956 20.5874 14.2904 20.0014 14.8765C19.4153 15.4625 18.6205 15.7917 17.7917 15.7917V16.798C17.7917 17.9022 16.5042 18.5053 15.6562 17.798L13.2479 15.7917H10.5C9.67119 15.7917 8.87634 15.4625 8.29029 14.8765C7.70424 14.2904 7.375 13.4956 7.375 12.6667V9.54175C7.375 8.71295 7.70424 7.91809 8.29029 7.33204C8.87634 6.74599 9.67119 6.41675 10.5 6.41675H17.7917ZM14.6667 0.166748C15.4955 0.166748 16.2903 0.495988 16.8764 1.08204C17.4624 1.66809 17.7917 2.46295 17.7917 3.29175V4.33342H9.45833C8.35326 4.33342 7.29345 4.7724 6.51205 5.5538C5.73065 6.33521 5.29166 7.39501 5.29166 8.50008V12.6667C5.29166 13.7542 5.70833 14.7459 6.39166 15.4876L5.29166 16.3126C4.43333 16.9563 3.20833 16.3438 3.20833 15.2709V13.7084C2.37953 13.7084 1.58467 13.3792 0.99862 12.7931C0.412569 12.2071 0.0833282 11.4122 0.0833282 10.5834V3.29175C0.0833282 2.46295 0.412569 1.66809 0.99862 1.08204C1.58467 0.495988 2.37953 0.166748 3.20833 0.166748H14.6667Z" fill="#1BCDC2"/>
</svg>
