<svg width="17" height="17" viewBox="0 0 17 17" fill="none" xmlns="http://www.w3.org/2000/svg">
<path d="M0.296875 8.82815V16.293C0.296875 16.656 0.590137 16.9492 0.953125 16.9492H2.28613V8.1719H0.953125C0.590137 8.1719 0.296875 8.46516 0.296875 8.82815ZM16.1679 8.94504C16.5124 8.48977 16.7031 7.93196 16.7031 7.35159C16.7031 6.43079 16.1884 5.55715 15.3599 5.07522C15.1466 4.95011 14.9037 4.88427 14.6564 4.8845H9.73662L9.85967 2.36409C9.89043 1.755 9.6751 1.17668 9.25469 0.735765C9.04954 0.518226 8.80187 0.345172 8.52706 0.227343C8.25224 0.109513 7.95614 0.0494242 7.65713 0.0508045C6.59072 0.0508045 5.64736 0.768578 5.36436 1.79602L3.60478 8.16985L3.59863 16.9472H13.2804C13.4711 16.9472 13.6536 16.9103 13.8238 16.8365C14.8 16.4201 15.4296 15.4665 15.4296 14.4083C15.4296 14.1499 15.3927 13.8956 15.3188 13.6495C15.6634 13.1943 15.8541 12.6365 15.8541 12.0561C15.8541 11.7977 15.8172 11.5434 15.7434 11.2973C16.0879 10.842 16.2786 10.2842 16.2786 9.70383C16.2786 9.44543 16.2417 9.19114 16.1679 8.94504ZM14.8246 8.23342L14.3755 8.62307L14.6626 9.14602C14.7565 9.31761 14.8052 9.51028 14.8041 9.70588C14.8041 10.0443 14.6585 10.3662 14.4021 10.5877L13.953 10.9774L14.2381 11.4983C14.332 11.6699 14.3807 11.8625 14.3796 12.0581C14.3796 12.3965 14.234 12.7185 13.9776 12.94L13.5285 13.3296L13.8136 13.8505C13.9075 14.0221 13.9562 14.2148 13.9551 14.4104C13.9551 14.8698 13.6844 15.284 13.266 15.4727H5.0752V8.39338C5.45664 7.01526 6.02676 4.94807 6.7876 2.18977C6.84075 2.00058 6.95385 1.83375 7.1099 1.71431C7.26594 1.59487 7.45653 1.52927 7.65303 1.52737C7.80684 1.52532 7.96064 1.57248 8.08574 1.66477C8.28877 1.81653 8.39746 2.04621 8.38516 2.29026L8.18828 6.35901H14.6359C15.001 6.58254 15.2266 6.95989 15.2266 7.35159C15.2266 7.68997 15.081 8.01194 14.8246 8.23342Z" fill="white"/>
</svg>
