<svg width="32" height="32" viewBox="0 0 32 32" fill="none" xmlns="http://www.w3.org/2000/svg">
<path d="M22.667 16.0003C22.667 15.2639 23.2639 14.667 24.0003 14.667C24.7367 14.667 25.3337 15.2639 25.3337 16.0003C25.3337 16.7367 24.7367 17.3337 24.0003 17.3337C23.2639 17.3337 22.667 16.7367 22.667 16.0003Z" stroke="#222222" stroke-width="2" stroke-linecap="round" stroke-linejoin="round"/>
<path d="M14.667 16.0003C14.667 15.2639 15.2639 14.667 16.0003 14.667C16.7367 14.667 17.3337 15.2639 17.3337 16.0003C17.3337 16.7367 16.7367 17.3337 16.0003 17.3337C15.2639 17.3337 14.667 16.7367 14.667 16.0003Z" stroke="#222222" stroke-width="2" stroke-linecap="round" stroke-linejoin="round"/>
<path d="M6.66699 16.0003C6.66699 15.2639 7.26395 14.667 8.00033 14.667C8.73671 14.667 9.33366 15.2639 9.33366 16.0003C9.33366 16.7367 8.73671 17.3337 8.00033 17.3337C7.26395 17.3337 6.66699 16.7367 6.66699 16.0003Z" stroke="#222222" stroke-width="2" stroke-linecap="round" stroke-linejoin="round"/>
</svg>
