<svg width="76" height="21" viewBox="0 0 76 21" fill="none" xmlns="http://www.w3.org/2000/svg">
<rect width="76" height="21" rx="5" fill="#9CD4DC"/>
<path d="M6.062 14V7.7H8.42C8.954 7.7 9.413 7.787 9.797 7.961C10.181 8.129 10.475 8.375 10.679 8.699C10.889 9.017 10.994 9.404 10.994 9.86C10.994 10.304 10.889 10.688 10.679 11.012C10.475 11.33 10.181 11.576 9.797 11.75C9.413 11.924 8.954 12.011 8.42 12.011H6.431L6.728 11.696V14H6.062ZM6.728 11.75L6.431 11.426H8.402C9.032 11.426 9.509 11.291 9.833 11.021C10.163 10.745 10.328 10.358 10.328 9.86C10.328 9.356 10.163 8.966 9.833 8.69C9.509 8.414 9.032 8.276 8.402 8.276H6.431L6.728 7.961V11.75ZM12.3005 15.791C12.0785 15.791 11.8655 15.755 11.6615 15.683C11.4635 15.611 11.2925 15.503 11.1485 15.359L11.4455 14.882C11.5655 14.996 11.6945 15.083 11.8325 15.143C11.9765 15.209 12.1355 15.242 12.3095 15.242C12.5195 15.242 12.6995 15.182 12.8495 15.062C13.0055 14.948 13.1525 14.744 13.2905 14.45L13.5965 13.757L13.6685 13.658L15.6125 9.275H16.2425L13.8755 14.567C13.7435 14.873 13.5965 15.116 13.4345 15.296C13.2785 15.476 13.1075 15.602 12.9215 15.674C12.7355 15.752 12.5285 15.791 12.3005 15.791ZM13.5605 14.135L11.3825 9.275H12.0485L13.9745 13.613L13.5605 14.135ZM20.7031 14L18.7591 11.66L19.2901 11.345L21.4591 14H20.7031ZM17.2381 14V9.275H17.8771V14H17.2381ZM17.6791 11.894V11.345H19.2001V11.894H17.6791ZM19.3441 11.705L18.7501 11.615L20.6311 9.275H21.3241L19.3441 11.705ZM24.2446 14.045C23.7886 14.045 23.3776 13.943 23.0116 13.739C22.6516 13.529 22.3666 13.244 22.1566 12.884C21.9466 12.518 21.8416 12.101 21.8416 11.633C21.8416 11.159 21.9466 10.742 22.1566 10.382C22.3666 10.022 22.6516 9.74 23.0116 9.536C23.3716 9.332 23.7826 9.23 24.2446 9.23C24.7126 9.23 25.1266 9.332 25.4866 9.536C25.8526 9.74 26.1376 10.022 26.3416 10.382C26.5516 10.742 26.6566 11.159 26.6566 11.633C26.6566 12.101 26.5516 12.518 26.3416 12.884C26.1376 13.244 25.8526 13.529 25.4866 13.739C25.1206 13.943 24.7066 14.045 24.2446 14.045ZM24.2446 13.478C24.5866 13.478 24.8896 13.403 25.1536 13.253C25.4176 13.097 25.6246 12.881 25.7746 12.605C25.9306 12.323 26.0086 11.999 26.0086 11.633C26.0086 11.261 25.9306 10.937 25.7746 10.661C25.6246 10.385 25.4176 10.172 25.1536 10.022C24.8896 9.866 24.5896 9.788 24.2536 9.788C23.9176 9.788 23.6176 9.866 23.3536 10.022C23.0896 10.172 22.8796 10.385 22.7236 10.661C22.5676 10.937 22.4896 11.261 22.4896 11.633C22.4896 11.999 22.5676 12.323 22.7236 12.605C22.8796 12.881 23.0896 13.097 23.3536 13.253C23.6176 13.403 23.9146 13.478 24.2446 13.478ZM28.0223 14V9.275H30.1103C30.6443 9.275 31.0643 9.377 31.3703 9.581C31.6823 9.785 31.8383 10.085 31.8383 10.481C31.8383 10.865 31.6913 11.162 31.3973 11.372C31.1033 11.576 30.7163 11.678 30.2363 11.678L30.3623 11.489C30.9263 11.489 31.3403 11.594 31.6043 11.804C31.8683 12.014 32.0003 12.317 32.0003 12.713C32.0003 13.121 31.8503 13.439 31.5503 13.667C31.2563 13.889 30.7973 14 30.1733 14H28.0223ZM28.6433 13.496H30.1463C30.5483 13.496 30.8513 13.433 31.0553 13.307C31.2653 13.175 31.3703 12.965 31.3703 12.677C31.3703 12.389 31.2773 12.179 31.0913 12.047C30.9053 11.915 30.6113 11.849 30.2093 11.849H28.6433V13.496ZM28.6433 11.372H30.0653C30.4313 11.372 30.7103 11.303 30.9023 11.165C31.1003 11.027 31.1993 10.826 31.1993 10.562C31.1993 10.298 31.1003 10.1 30.9023 9.968C30.7103 9.836 30.4313 9.77 30.0653 9.77H28.6433V11.372ZM35.4419 14.045C34.9859 14.045 34.5749 13.943 34.2089 13.739C33.8489 13.529 33.5639 13.244 33.3539 12.884C33.1439 12.518 33.0389 12.101 33.0389 11.633C33.0389 11.159 33.1439 10.742 33.3539 10.382C33.5639 10.022 33.8489 9.74 34.2089 9.536C34.5689 9.332 34.9799 9.23 35.4419 9.23C35.9099 9.23 36.3239 9.332 36.6839 9.536C37.0499 9.74 37.3349 10.022 37.5389 10.382C37.7489 10.742 37.8539 11.159 37.8539 11.633C37.8539 12.101 37.7489 12.518 37.5389 12.884C37.3349 13.244 37.0499 13.529 36.6839 13.739C36.3179 13.943 35.9039 14.045 35.4419 14.045ZM35.4419 13.478C35.7839 13.478 36.0869 13.403 36.3509 13.253C36.6149 13.097 36.8219 12.881 36.9719 12.605C37.1279 12.323 37.2059 11.999 37.2059 11.633C37.2059 11.261 37.1279 10.937 36.9719 10.661C36.8219 10.385 36.6149 10.172 36.3509 10.022C36.0869 9.866 35.7869 9.788 35.4509 9.788C35.1149 9.788 34.8149 9.866 34.5509 10.022C34.2869 10.172 34.0769 10.385 33.9209 10.661C33.7649 10.937 33.6869 11.261 33.6869 11.633C33.6869 11.999 33.7649 12.323 33.9209 12.605C34.0769 12.881 34.2869 13.097 34.5509 13.253C34.8149 13.403 35.1119 13.478 35.4419 13.478ZM42.4332 13.694V9.833H40.1562L40.1022 10.886C40.0902 11.204 40.0692 11.516 40.0392 11.822C40.0152 12.128 39.9702 12.41 39.9042 12.668C39.8442 12.92 39.7572 13.127 39.6432 13.289C39.5292 13.445 39.3822 13.535 39.2022 13.559L38.5632 13.442C38.7492 13.448 38.9022 13.382 39.0222 13.244C39.1422 13.1 39.2352 12.905 39.3012 12.659C39.3672 12.413 39.4152 12.134 39.4452 11.822C39.4752 11.504 39.4992 11.18 39.5172 10.85L39.5802 9.275H43.0722V13.694H42.4332ZM38.3652 15.143V13.442H43.8102V15.143H43.2072V14H38.9682V15.143H38.3652ZM45.0555 14V9.275H45.6945V13.028L48.8535 9.275H49.4205V14H48.7815V10.238L45.6315 14H45.0555ZM52.1518 14V9.662L52.3138 9.833H50.3608V9.275H54.5818V9.833H52.6288L52.7908 9.662V14H52.1518ZM57.311 14.045C56.819 14.045 56.387 13.943 56.015 13.739C55.643 13.529 55.352 13.244 55.142 12.884C54.932 12.518 54.827 12.101 54.827 11.633C54.827 11.165 54.926 10.751 55.124 10.391C55.328 10.031 55.604 9.749 55.952 9.545C56.306 9.335 56.702 9.23 57.14 9.23C57.584 9.23 57.977 9.332 58.319 9.536C58.667 9.734 58.94 10.016 59.138 10.382C59.336 10.742 59.435 11.159 59.435 11.633C59.435 11.663 59.432 11.696 59.426 11.732C59.426 11.762 59.426 11.795 59.426 11.831H55.313V11.354H59.084L58.832 11.543C58.832 11.201 58.757 10.898 58.607 10.634C58.463 10.364 58.265 10.154 58.013 10.004C57.761 9.854 57.47 9.779 57.14 9.779C56.816 9.779 56.525 9.854 56.267 10.004C56.009 10.154 55.808 10.364 55.664 10.634C55.52 10.904 55.448 11.213 55.448 11.561V11.66C55.448 12.02 55.526 12.338 55.682 12.614C55.844 12.884 56.066 13.097 56.348 13.253C56.636 13.403 56.963 13.478 57.329 13.478C57.617 13.478 57.884 13.427 58.13 13.325C58.382 13.223 58.598 13.067 58.778 12.857L59.138 13.271C58.928 13.523 58.664 13.715 58.346 13.847C58.034 13.979 57.689 14.045 57.311 14.045ZM59.8888 13.991L59.9338 13.442C59.9758 13.448 60.0148 13.457 60.0508 13.469C60.0928 13.475 60.1288 13.478 60.1588 13.478C60.3508 13.478 60.5038 13.406 60.6178 13.262C60.7378 13.118 60.8278 12.926 60.8878 12.686C60.9478 12.446 60.9898 12.176 61.0138 11.876C61.0378 11.57 61.0588 11.264 61.0768 10.958L61.1578 9.275H64.6228V14H63.9838V9.644L64.1458 9.833H61.5718L61.7248 9.635L61.6528 11.003C61.6348 11.411 61.6018 11.801 61.5538 12.173C61.5118 12.545 61.4428 12.872 61.3468 13.154C61.2568 13.436 61.1308 13.658 60.9688 13.82C60.8068 13.976 60.5998 14.054 60.3478 14.054C60.2758 14.054 60.2008 14.048 60.1228 14.036C60.0508 14.024 59.9728 14.009 59.8888 13.991ZM68.4733 10.94C69.0673 10.946 69.5173 11.078 69.8233 11.336C70.1353 11.594 70.2913 11.966 70.2913 12.452C70.2913 12.956 70.1233 13.343 69.7873 13.613C69.4573 13.883 68.9773 14.015 68.3473 14.009L66.4393 14V9.275H67.0783V10.922L68.4733 10.94ZM68.3113 13.523C68.7493 13.529 69.0793 13.442 69.3013 13.262C69.5293 13.076 69.6433 12.806 69.6433 12.452C69.6433 12.098 69.5323 11.84 69.3103 11.678C69.0883 11.51 68.7553 11.423 68.3113 11.417L67.0783 11.399V13.505L68.3113 13.523Z" fill="white"/>
</svg>
