<svg width="12" height="12" viewBox="0 0 12 12" fill="none" xmlns="http://www.w3.org/2000/svg">
<path d="M11.6328 10.4406H1.55469V0.690582C1.55469 0.621832 1.50195 0.565582 1.4375 0.565582H0.617188C0.552734 0.565582 0.5 0.621832 0.5 0.690582V11.4406C0.5 11.5093 0.552734 11.5656 0.617188 11.5656H11.6328C11.6973 11.5656 11.75 11.5093 11.75 11.4406V10.5656C11.75 10.4968 11.6973 10.4406 11.6328 10.4406ZM2.84375 9.19058H3.66406C3.72852 9.19058 3.78125 9.13433 3.78125 9.06558V6.81558C3.78125 6.74683 3.72852 6.69058 3.66406 6.69058H2.84375C2.7793 6.69058 2.72656 6.74683 2.72656 6.81558V9.06558C2.72656 9.13433 2.7793 9.19058 2.84375 9.19058ZM5.07031 9.19058H5.89062C5.95508 9.19058 6.00781 9.13433 6.00781 9.06558V4.06558C6.00781 3.99683 5.95508 3.94058 5.89062 3.94058H5.07031C5.00586 3.94058 4.95312 3.99683 4.95312 4.06558V9.06558C4.95312 9.13433 5.00586 9.19058 5.07031 9.19058ZM7.29688 9.19058H8.11719C8.18164 9.19058 8.23438 9.13433 8.23438 9.06558V5.28433C8.23438 5.21558 8.18164 5.15933 8.11719 5.15933H7.29688C7.23242 5.15933 7.17969 5.21558 7.17969 5.28433V9.06558C7.17969 9.13433 7.23242 9.19058 7.29688 9.19058ZM9.52344 9.19058H10.3438C10.4082 9.19058 10.4609 9.13433 10.4609 9.06558V2.81558C10.4609 2.74683 10.4082 2.69058 10.3438 2.69058H9.52344C9.45898 2.69058 9.40625 2.74683 9.40625 2.81558V9.06558C9.40625 9.13433 9.45898 9.19058 9.52344 9.19058Z" fill="#23B4BC"/>
</svg>
