<svg width="73" height="21" viewBox="0 0 73 21" fill="none" xmlns="http://www.w3.org/2000/svg">
<rect width="73" height="21" rx="5" fill="#9CD4DC"/>
<path d="M6.062 14V7.7H6.719V12.92L10.751 7.7H11.354V14H10.697V8.789L6.665 14H6.062ZM15.307 14.045C14.839 14.045 14.419 13.943 14.047 13.739C13.681 13.529 13.393 13.244 13.183 12.884C12.973 12.518 12.868 12.101 12.868 11.633C12.868 11.159 12.973 10.742 13.183 10.382C13.393 10.022 13.681 9.74 14.047 9.536C14.419 9.332 14.839 9.23 15.307 9.23C15.709 9.23 16.072 9.308 16.396 9.464C16.72 9.62 16.975 9.854 17.161 10.166L16.684 10.49C16.522 10.25 16.321 10.073 16.081 9.959C15.841 9.845 15.58 9.788 15.298 9.788C14.962 9.788 14.659 9.866 14.389 10.022C14.119 10.172 13.906 10.385 13.75 10.661C13.594 10.937 13.516 11.261 13.516 11.633C13.516 12.005 13.594 12.329 13.75 12.605C13.906 12.881 14.119 13.097 14.389 13.253C14.659 13.403 14.962 13.478 15.298 13.478C15.58 13.478 15.841 13.421 16.081 13.307C16.321 13.193 16.522 13.019 16.684 12.785L17.161 13.109C16.975 13.415 16.72 13.649 16.396 13.811C16.072 13.967 15.709 14.045 15.307 14.045ZM18.3983 14V9.275H22.6463V14H22.0073V9.662L22.1693 9.833H18.8753L19.0373 9.662V14H18.3983ZM26.4067 14.045C25.9507 14.045 25.5397 13.943 25.1737 13.739C24.8137 13.529 24.5287 13.244 24.3187 12.884C24.1087 12.518 24.0037 12.101 24.0037 11.633C24.0037 11.159 24.1087 10.742 24.3187 10.382C24.5287 10.022 24.8137 9.74 25.1737 9.536C25.5337 9.332 25.9447 9.23 26.4067 9.23C26.8747 9.23 27.2887 9.332 27.6487 9.536C28.0147 9.74 28.2997 10.022 28.5037 10.382C28.7137 10.742 28.8187 11.159 28.8187 11.633C28.8187 12.101 28.7137 12.518 28.5037 12.884C28.2997 13.244 28.0147 13.529 27.6487 13.739C27.2827 13.943 26.8687 14.045 26.4067 14.045ZM26.4067 13.478C26.7487 13.478 27.0517 13.403 27.3157 13.253C27.5797 13.097 27.7867 12.881 27.9367 12.605C28.0927 12.323 28.1707 11.999 28.1707 11.633C28.1707 11.261 28.0927 10.937 27.9367 10.661C27.7867 10.385 27.5797 10.172 27.3157 10.022C27.0517 9.866 26.7517 9.788 26.4157 9.788C26.0797 9.788 25.7797 9.866 25.5157 10.022C25.2517 10.172 25.0417 10.385 24.8857 10.661C24.7297 10.937 24.6517 11.261 24.6517 11.633C24.6517 11.999 24.7297 12.323 24.8857 12.605C25.0417 12.881 25.2517 13.097 25.5157 13.253C25.7797 13.403 26.0767 13.478 26.4067 13.478ZM29.294 13.991L29.339 13.442C29.381 13.448 29.42 13.457 29.456 13.469C29.498 13.475 29.534 13.478 29.564 13.478C29.756 13.478 29.909 13.406 30.023 13.262C30.143 13.118 30.233 12.926 30.293 12.686C30.353 12.446 30.395 12.176 30.419 11.876C30.443 11.57 30.464 11.264 30.482 10.958L30.563 9.275H34.028V14H33.389V9.644L33.551 9.833H30.977L31.13 9.635L31.058 11.003C31.04 11.411 31.007 11.801 30.959 12.173C30.917 12.545 30.848 12.872 30.752 13.154C30.662 13.436 30.536 13.658 30.374 13.82C30.212 13.976 30.005 14.054 29.753 14.054C29.681 14.054 29.606 14.048 29.528 14.036C29.456 14.024 29.378 14.009 29.294 13.991ZM35.8445 14V9.275H36.4835V11.363H39.4625V9.275H40.1015V14H39.4625V11.912H36.4835V14H35.8445ZM41.9178 14V9.275H42.5568V13.028L45.7158 9.275H46.2828V14H45.6438V10.238L42.4938 14H41.9178ZM49.0141 14V9.662L49.1761 9.833H47.2231V9.275H51.4441V9.833H49.4911L49.6531 9.662V14H49.0141ZM54.1733 14.045C53.6813 14.045 53.2493 13.943 52.8773 13.739C52.5053 13.529 52.2143 13.244 52.0043 12.884C51.7943 12.518 51.6893 12.101 51.6893 11.633C51.6893 11.165 51.7883 10.751 51.9863 10.391C52.1903 10.031 52.4663 9.749 52.8143 9.545C53.1683 9.335 53.5643 9.23 54.0023 9.23C54.4463 9.23 54.8393 9.332 55.1813 9.536C55.5293 9.734 55.8023 10.016 56.0003 10.382C56.1983 10.742 56.2973 11.159 56.2973 11.633C56.2973 11.663 56.2943 11.696 56.2883 11.732C56.2883 11.762 56.2883 11.795 56.2883 11.831H52.1753V11.354H55.9463L55.6943 11.543C55.6943 11.201 55.6193 10.898 55.4693 10.634C55.3253 10.364 55.1273 10.154 54.8753 10.004C54.6233 9.854 54.3323 9.779 54.0023 9.779C53.6783 9.779 53.3873 9.854 53.1293 10.004C52.8713 10.154 52.6703 10.364 52.5263 10.634C52.3823 10.904 52.3103 11.213 52.3103 11.561V11.66C52.3103 12.02 52.3883 12.338 52.5443 12.614C52.7063 12.884 52.9283 13.097 53.2103 13.253C53.4983 13.403 53.8253 13.478 54.1913 13.478C54.4793 13.478 54.7463 13.427 54.9923 13.325C55.2443 13.223 55.4603 13.067 55.6403 12.857L56.0003 13.271C55.7903 13.523 55.5263 13.715 55.2083 13.847C54.8963 13.979 54.5513 14.045 54.1733 14.045ZM56.7511 13.991L56.7961 13.442C56.8381 13.448 56.8771 13.457 56.9131 13.469C56.9551 13.475 56.9911 13.478 57.0211 13.478C57.2131 13.478 57.3661 13.406 57.4801 13.262C57.6001 13.118 57.6901 12.926 57.7501 12.686C57.8101 12.446 57.8521 12.176 57.8761 11.876C57.9001 11.57 57.9211 11.264 57.9391 10.958L58.0201 9.275H61.4851V14H60.8461V9.644L61.0081 9.833H58.4341L58.5871 9.635L58.5151 11.003C58.4971 11.411 58.4641 11.801 58.4161 12.173C58.3741 12.545 58.3051 12.872 58.2091 13.154C58.1191 13.436 57.9931 13.658 57.8311 13.82C57.6691 13.976 57.4621 14.054 57.2101 14.054C57.1381 14.054 57.0631 14.048 56.9851 14.036C56.9131 14.024 56.8351 14.009 56.7511 13.991ZM65.3356 10.94C65.9296 10.946 66.3796 11.078 66.6856 11.336C66.9976 11.594 67.1536 11.966 67.1536 12.452C67.1536 12.956 66.9856 13.343 66.6496 13.613C66.3196 13.883 65.8396 14.015 65.2096 14.009L63.3016 14V9.275H63.9406V10.922L65.3356 10.94ZM65.1736 13.523C65.6116 13.529 65.9416 13.442 66.1636 13.262C66.3916 13.076 66.5056 12.806 66.5056 12.452C66.5056 12.098 66.3946 11.84 66.1726 11.678C65.9506 11.51 65.6176 11.423 65.1736 11.417L63.9406 11.399V13.505L65.1736 13.523Z" fill="white"/>
</svg>
