<svg width="20" height="15" viewBox="0 0 20 15" fill="none" xmlns="http://www.w3.org/2000/svg">
<path fill-rule="evenodd" clip-rule="evenodd" d="M17.5087 13.5708C17.5591 13.5775 17.6094 13.5843 17.6598 13.5914L17.9128 13.6269C19.0144 13.7815 20.0001 12.9418 20.0001 11.8487V11.0145C20.0001 10.2327 19.4997 9.53536 18.7502 9.27242C17.8843 8.96864 16.9903 8.77084 16.0878 8.67903C17.0295 9.35984 17.6135 10.4623 17.6135 11.665V12.7008C17.6135 13.0016 17.5771 13.2928 17.5087 13.5708ZM13.6919 7.56924C14.0672 7.72417 14.4794 7.80978 14.912 7.80978C16.6524 7.80978 18.0633 6.42391 18.0633 4.71436C18.0633 3.0048 16.6524 1.61893 14.912 1.61893C14.8604 1.61893 14.8092 1.62014 14.7582 1.62255C15.0747 2.29659 15.2516 3.0492 15.2516 3.84311C15.2516 5.30155 14.6547 6.62057 13.6919 7.56924Z" fill="rgb(34, 34, 34)"/>
<path fill-rule="evenodd" clip-rule="evenodd" d="M2.49128 13.5708C2.4409 13.5775 2.39055 13.5843 2.34022 13.5914L2.08719 13.6269C0.985557 13.7815 -6.10352e-05 12.9418 -6.10352e-05 11.8487V11.0145C-6.10352e-05 10.2327 0.500257 9.53536 1.24977 9.27242C2.11572 8.96864 3.00971 8.77084 3.91216 8.67903C2.97051 9.35984 2.38646 10.4623 2.38646 11.665V12.7008C2.38646 13.0016 2.42286 13.2928 2.49128 13.5708ZM6.30811 7.56924C5.93284 7.72417 5.52061 7.80978 5.08802 7.80978C3.3476 7.80978 1.93672 6.42391 1.93672 4.71436C1.93672 3.0048 3.3476 1.61893 5.08802 1.61893C5.13958 1.61893 5.19085 1.62014 5.2418 1.62255C4.92531 2.29659 4.74844 3.0492 4.74844 3.84311C4.74844 5.30155 5.34531 6.62057 6.30811 7.56924Z" fill="rgb(34, 34, 34)"/>
<path fill-rule="evenodd" clip-rule="evenodd" d="M13.8639 3.84312C13.8639 1.72062 12.1433 0 10.0208 0C7.89826 0 6.17764 1.72062 6.17764 3.84312C6.17764 5.96562 7.89826 7.68624 10.0208 7.68624C12.1433 7.68624 13.8639 5.96562 13.8639 3.84312Z" fill="rgb(34, 34, 34)"/>
<path fill-rule="evenodd" clip-rule="evenodd" d="M5.33989 9.50217C8.36684 8.42112 11.6747 8.42112 14.7016 9.50217C15.6157 9.82862 16.2259 10.6944 16.2259 11.665V12.7008C16.2259 14.0579 15.0239 15.1004 13.6804 14.9085L13.3718 14.8644C11.1491 14.5468 8.89247 14.5468 6.66973 14.8644L6.36116 14.9085C5.01767 15.1004 3.81567 14.0579 3.81567 12.7008V11.665C3.81567 10.6944 4.42583 9.82862 5.33989 9.50217Z" fill="rgb(34, 34, 34)"/>
</svg>
