<svg width="12" height="12" viewBox="0 0 12 12" fill="none" xmlns="http://www.w3.org/2000/svg">
<g clip-path="url(#clip0_841_9990)">
<path d="M11.8902 11.3559L8.24652 7.68992C8.92565 6.87655 9.33496 5.83011 9.33496 4.68748C9.33496 2.09867 7.23627 -1.52588e-05 4.64746 -1.52588e-05C2.05865 -1.52588e-05 -0.0400391 2.09867 -0.0400391 4.68748C-0.0400391 7.2763 2.05865 9.37498 4.64746 9.37498C5.82365 9.37498 6.89802 8.94073 7.72115 8.22486L11.3598 11.8864C11.5062 12.0328 11.7438 12.0328 11.8902 11.8864C12.0365 11.7399 12.0365 11.5025 11.8902 11.3559H11.8902ZM4.64746 8.63117C2.46946 8.63117 0.703773 6.86548 0.703773 4.68748C0.703773 2.50948 2.46946 0.743797 4.64746 0.743797C6.82546 0.743797 8.59115 2.50948 8.59115 4.68748C8.59115 6.86548 6.82546 8.63117 4.64746 8.63117Z" fill="#CCCCCC"/>
</g>
<defs>
<clipPath id="clip0_841_9990">
<rect width="12" height="12" fill="white"/>
</clipPath>
</defs>
</svg>
